<svg width="134" height="33" viewBox="0 0 134 33" fill="none" xmlns="http://www.w3.org/2000/svg">
<path fill-rule="evenodd" clip-rule="evenodd" d="M15.8071 16.3527C15.8939 16.562 16.0651 16.7234 16.2759 16.795L24.8684 19.714C24.976 19.7506 25.0885 19.7619 25.198 19.7489C25.3021 19.7365 25.4035 19.702 25.4953 19.6463L32.9561 15.1183C33.1557 14.9972 33.2888 14.7885 33.3171 14.552C33.3455 14.3156 33.2661 14.0775 33.1016 13.906L22.9302 3.30146C22.7565 3.12044 22.5093 3.03513 22.2657 3.07306C22.0224 3.11088 21.8136 3.2669 21.7053 3.49179L15.8234 15.7053C15.7262 15.9072 15.7202 16.1435 15.8071 16.3527Z" fill="#FFCC02"/>
<path fill-rule="evenodd" clip-rule="evenodd" d="M25.6772 22.0116C25.6376 21.7182 25.4391 21.4709 25.1649 21.3732L2.5111 13.3003C2.19691 13.1883 1.85046 13.2959 1.65422 13.5666C1.45812 13.8372 1.45733 14.2087 1.65231 14.4853L12.8593 30.3866C13.0287 30.6269 13.3061 30.7423 13.574 30.7104C13.6891 30.6967 13.8025 30.6557 13.9049 30.5858L25.3517 22.7573C25.5907 22.5939 25.7167 22.305 25.6772 22.0116Z" fill="#EFAE07"/>
<path fill-rule="evenodd" clip-rule="evenodd" d="M47.1145 7.94816C46.8578 7.72835 46.4936 7.70215 46.2147 7.88341L13.2666 29.2891C12.9684 29.4829 12.8432 29.8626 12.9649 30.2056C13.0866 30.5486 13.4226 30.7618 13.7753 30.7216L39.3912 27.7938L39.3949 27.7934C39.6679 27.7608 39.9011 27.5826 40.0042 27.3227L47.3363 8.84434C47.4608 8.53064 47.371 8.16792 47.1145 7.94816Z" fill="#FFCC02"/>
<path d="M68.4922 21.2578V24H59.9023V21.2578H68.4922ZM61.0391 6.9375V24H57.5234V6.9375H61.0391ZM83.75 15.0703V15.8789C83.75 17.1758 83.5742 18.3398 83.2227 19.3711C82.8711 20.4023 82.375 21.2812 81.7344 22.0078C81.0938 22.7266 80.3281 23.2773 79.4375 23.6602C78.5547 24.043 77.5742 24.2344 76.4961 24.2344C75.4258 24.2344 74.4453 24.043 73.5547 23.6602C72.6719 23.2773 71.9062 22.7266 71.2578 22.0078C70.6094 21.2812 70.1055 20.4023 69.7461 19.3711C69.3945 18.3398 69.2188 17.1758 69.2188 15.8789V15.0703C69.2188 13.7656 69.3945 12.6016 69.7461 11.5781C70.0977 10.5469 70.5938 9.66797 71.2344 8.94141C71.8828 8.21484 72.6484 7.66016 73.5312 7.27734C74.4219 6.89453 75.4023 6.70312 76.4727 6.70312C77.5508 6.70312 78.5312 6.89453 79.4141 7.27734C80.3047 7.66016 81.0703 8.21484 81.7109 8.94141C82.3594 9.66797 82.8594 10.5469 83.2109 11.5781C83.5703 12.6016 83.75 13.7656 83.75 15.0703ZM80.1992 15.8789V15.0469C80.1992 14.1406 80.1172 13.3438 79.9531 12.6562C79.7891 11.9688 79.5469 11.3906 79.2266 10.9219C78.9062 10.4531 78.5156 10.1016 78.0547 9.86719C77.5938 9.625 77.0664 9.50391 76.4727 9.50391C75.8789 9.50391 75.3516 9.625 74.8906 9.86719C74.4375 10.1016 74.0508 10.4531 73.7305 10.9219C73.418 11.3906 73.1797 11.9688 73.0156 12.6562C72.8516 13.3438 72.7695 14.1406 72.7695 15.0469V15.8789C72.7695 16.7773 72.8516 17.5742 73.0156 18.2695C73.1797 18.957 73.4219 19.5391 73.7422 20.0156C74.0625 20.4844 74.4531 20.8398 74.9141 21.082C75.375 21.3242 75.9023 21.4453 76.4961 21.4453C77.0898 21.4453 77.6172 21.3242 78.0781 21.082C78.5391 20.8398 78.9258 20.4844 79.2383 20.0156C79.5508 19.5391 79.7891 18.957 79.9531 18.2695C80.1172 17.5742 80.1992 16.7773 80.1992 15.8789ZM99.8047 15.082V21.8438C99.5391 22.1641 99.1289 22.5117 98.5742 22.8867C98.0195 23.2539 97.3047 23.5703 96.4297 23.8359C95.5547 24.1016 94.4961 24.2344 93.2539 24.2344C92.1523 24.2344 91.1484 24.0547 90.2422 23.6953C89.3359 23.3281 88.5547 22.793 87.8984 22.0898C87.25 21.3867 86.75 20.5273 86.3984 19.5117C86.0469 18.4883 85.8711 17.3203 85.8711 16.0078V14.9414C85.8711 13.6289 86.0391 12.4609 86.375 11.4375C86.7188 10.4141 87.207 9.55078 87.8398 8.84766C88.4727 8.14453 89.2266 7.60937 90.1016 7.24219C90.9766 6.875 91.9492 6.69141 93.0195 6.69141C94.5039 6.69141 95.7227 6.93359 96.6758 7.41797C97.6289 7.89453 98.3555 8.55859 98.8555 9.41016C99.3633 10.2539 99.6758 11.2227 99.793 12.3164H96.3828C96.2969 11.7383 96.1328 11.2344 95.8906 10.8047C95.6484 10.375 95.3008 10.0391 94.8477 9.79688C94.4023 9.55469 93.8242 9.43359 93.1133 9.43359C92.5273 9.43359 92.0039 9.55469 91.543 9.79688C91.0898 10.0312 90.707 10.3789 90.3945 10.8398C90.082 11.3008 89.8438 11.8711 89.6797 12.5508C89.5156 13.2305 89.4336 14.0195 89.4336 14.918V16.0078C89.4336 16.8984 89.5195 17.6875 89.6914 18.375C89.8633 19.0547 90.1172 19.6289 90.4531 20.0977C90.7969 20.5586 91.2188 20.9062 91.7188 21.1406C92.2188 21.375 92.8008 21.4922 93.4648 21.4922C94.0195 21.4922 94.4805 21.4453 94.8477 21.3516C95.2227 21.2578 95.5234 21.1445 95.75 21.0117C95.9844 20.8711 96.1641 20.7383 96.2891 20.6133V17.5898H93.0781V15.082H99.8047ZM116.656 15.0703V15.8789C116.656 17.1758 116.48 18.3398 116.129 19.3711C115.777 20.4023 115.281 21.2812 114.641 22.0078C114 22.7266 113.234 23.2773 112.344 23.6602C111.461 24.043 110.48 24.2344 109.402 24.2344C108.332 24.2344 107.352 24.043 106.461 23.6602C105.578 23.2773 104.812 22.7266 104.164 22.0078C103.516 21.2812 103.012 20.4023 102.652 19.3711C102.301 18.3398 102.125 17.1758 102.125 15.8789V15.0703C102.125 13.7656 102.301 12.6016 102.652 11.5781C103.004 10.5469 103.5 9.66797 104.141 8.94141C104.789 8.21484 105.555 7.66016 106.438 7.27734C107.328 6.89453 108.309 6.70312 109.379 6.70312C110.457 6.70312 111.438 6.89453 112.32 7.27734C113.211 7.66016 113.977 8.21484 114.617 8.94141C115.266 9.66797 115.766 10.5469 116.117 11.5781C116.477 12.6016 116.656 13.7656 116.656 15.0703ZM113.105 15.8789V15.0469C113.105 14.1406 113.023 13.3438 112.859 12.6562C112.695 11.9688 112.453 11.3906 112.133 10.9219C111.812 10.4531 111.422 10.1016 110.961 9.86719C110.5 9.625 109.973 9.50391 109.379 9.50391C108.785 9.50391 108.258 9.625 107.797 9.86719C107.344 10.1016 106.957 10.4531 106.637 10.9219C106.324 11.3906 106.086 11.9688 105.922 12.6562C105.758 13.3438 105.676 14.1406 105.676 15.0469V15.8789C105.676 16.7773 105.758 17.5742 105.922 18.2695C106.086 18.957 106.328 19.5391 106.648 20.0156C106.969 20.4844 107.359 20.8398 107.82 21.082C108.281 21.3242 108.809 21.4453 109.402 21.4453C109.996 21.4453 110.523 21.3242 110.984 21.082C111.445 20.8398 111.832 20.4844 112.145 20.0156C112.457 19.5391 112.695 18.957 112.859 18.2695C113.023 17.5742 113.105 16.7773 113.105 15.8789Z" fill="white"/>
</svg>
