<svg width="143" height="38" viewBox="0 0 143 38" fill="none" xmlns="http://www.w3.org/2000/svg">
<path fill-rule="evenodd" clip-rule="evenodd" d="M15.8071 16.3525C15.8939 16.5618 16.0651 16.7231 16.2759 16.7947L24.8684 19.7137C24.976 19.7503 25.0885 19.7617 25.198 19.7486C25.3021 19.7362 25.4035 19.7018 25.4953 19.646L32.9561 15.1181C33.1557 14.9969 33.2888 14.7882 33.3171 14.5518C33.3455 14.3154 33.2661 14.0773 33.1016 13.9058L22.9302 3.30122C22.7565 3.12019 22.5093 3.03488 22.2657 3.07282C22.0224 3.11063 21.8136 3.26666 21.7053 3.49154L15.8234 15.7051C15.7262 15.907 15.7202 16.1433 15.8071 16.3525Z" fill="#FFCC02"/>
<path fill-rule="evenodd" clip-rule="evenodd" d="M25.6772 22.0114C25.6376 21.718 25.4392 21.4707 25.1649 21.3729L2.5111 13.3001C2.19691 13.1881 1.85046 13.2957 1.65422 13.5663C1.45812 13.837 1.45733 14.2084 1.65231 14.4851L12.8593 30.3863C13.0287 30.6267 13.3061 30.7421 13.574 30.7102C13.6891 30.6964 13.8025 30.6555 13.9049 30.5855L25.3517 22.7571C25.5907 22.5936 25.7167 22.3048 25.6772 22.0114Z" fill="#EFAE07"/>
<path fill-rule="evenodd" clip-rule="evenodd" d="M47.1145 7.94792C46.8578 7.72811 46.4936 7.70191 46.2147 7.88317L13.2666 29.2889C12.9684 29.4826 12.8432 29.8624 12.9649 30.2053C13.0866 30.5484 13.4226 30.7616 13.7753 30.7213L39.3912 27.7936L39.3949 27.7932C39.6679 27.7606 39.9011 27.5823 40.0042 27.3224L47.3363 8.8441C47.4608 8.53039 47.371 8.16768 47.1145 7.94792Z" fill="#FFCC02"/>
<path d="M57.8281 9.72656H61.4375V23.8945H69.9922V27H57.8281V9.72656ZM80.1406 24.4219C81.5703 24.4219 82.7031 23.8945 83.5391 22.8398C84.3828 21.7852 84.8047 20.2852 84.8047 18.3398C84.8047 16.4023 84.3828 14.9062 83.5391 13.8516C82.7031 12.7891 81.5703 12.2578 80.1406 12.2578C78.7109 12.2578 77.5703 12.7852 76.7188 13.8398C75.8672 14.8945 75.4414 16.3945 75.4414 18.3398C75.4414 20.2852 75.8672 21.7852 76.7188 22.8398C77.5703 23.8945 78.7109 24.4219 80.1406 24.4219ZM88.4141 18.3398C88.4141 21.4414 87.543 23.8164 85.8008 25.4648C84.4961 26.8086 82.6094 27.4805 80.1406 27.4805C77.6719 27.4805 75.7852 26.8086 74.4805 25.4648C72.7305 23.8164 71.8555 21.4414 71.8555 18.3398C71.8555 15.1758 72.7305 12.8008 74.4805 11.2148C75.7852 9.87109 77.6719 9.19922 80.1406 9.19922C82.6094 9.19922 84.4961 9.87109 85.8008 11.2148C87.543 12.8008 88.4141 15.1758 88.4141 18.3398ZM102.793 15.1172C102.52 13.9375 101.852 13.1133 100.789 12.6445C100.195 12.3867 99.5352 12.2578 98.8086 12.2578C97.418 12.2578 96.2734 12.7852 95.375 13.8398C94.4844 14.8867 94.0391 16.4648 94.0391 18.5742C94.0391 20.6992 94.5234 22.2031 95.4922 23.0859C96.4609 23.9688 97.5625 24.4102 98.7969 24.4102C100.008 24.4102 101 24.0625 101.773 23.3672C102.547 22.6641 103.023 21.7461 103.203 20.6133H99.207V17.7305H106.402V27H104.012L103.648 24.8438C102.953 25.6641 102.328 26.2422 101.773 26.5781C100.82 27.1641 99.6484 27.457 98.2578 27.457C95.9688 27.457 94.0938 26.6641 92.6328 25.0781C91.1094 23.4844 90.3477 21.3047 90.3477 18.5391C90.3477 15.7422 91.1172 13.5 92.6562 11.8125C94.1953 10.125 96.2305 9.28125 98.7617 9.28125C100.957 9.28125 102.719 9.83984 104.047 10.957C105.383 12.0664 106.148 13.4531 106.344 15.1172H102.793ZM117.5 24.4219C118.93 24.4219 120.062 23.8945 120.898 22.8398C121.742 21.7852 122.164 20.2852 122.164 18.3398C122.164 16.4023 121.742 14.9062 120.898 13.8516C120.062 12.7891 118.93 12.2578 117.5 12.2578C116.07 12.2578 114.93 12.7852 114.078 13.8398C113.227 14.8945 112.801 16.3945 112.801 18.3398C112.801 20.2852 113.227 21.7852 114.078 22.8398C114.93 23.8945 116.07 24.4219 117.5 24.4219ZM125.773 18.3398C125.773 21.4414 124.902 23.8164 123.16 25.4648C121.855 26.8086 119.969 27.4805 117.5 27.4805C115.031 27.4805 113.145 26.8086 111.84 25.4648C110.09 23.8164 109.215 21.4414 109.215 18.3398C109.215 15.1758 110.09 12.8008 111.84 11.2148C113.145 9.87109 115.031 9.19922 117.5 9.19922C119.969 9.19922 121.855 9.87109 123.16 11.2148C124.902 12.8008 125.773 15.1758 125.773 18.3398Z" fill="#19233F"/>
</svg>
